<svg width="244" height="253" viewBox="0 0 244 253" fill="none" xmlns="http://www.w3.org/2000/svg">
<path d="M122 252.4C188.053 252.4 241.6 196.973 241.6 128.6C241.6 60.227 188.053 4.7998 122 4.7998C55.9468 4.7998 2.40002 60.227 2.40002 128.6C2.40002 196.973 55.9468 252.4 122 252.4Z" fill="url(#paint0_radial_55_3714)"/>
<path d="M121.7 247C179.524 247 226.4 200.124 226.4 142.3C226.4 84.4754 179.524 37.5996 121.7 37.5996C63.8758 37.5996 17 84.4754 17 142.3C17 200.124 63.8758 247 121.7 247Z" fill="url(#paint1_radial_55_3714)"/>
<path d="M36.3 70.5996C36.3 38.5996 74.8 12.5996 122.3 12.5996C169.8 12.5996 208.3 38.5996 208.3 70.5996" fill="url(#paint2_linear_55_3714)"/>
<path d="M208.4 186.2C208.4 218.2 169.9 244.2 122.4 244.2C74.9 244.2 36.4 218.2 36.4 186.2" fill="url(#paint3_linear_55_3714)"/>
<path d="M122 252.4C54.7 252.4 0 195.8 0 126.2C0 56.6 54.7 0 122 0C189.3 0 244 56.6 244 126.2C244 195.8 189.3 252.4 122 252.4ZM122 4.8C57.4 4.8 4.8 59.3 4.8 126.2C4.8 193.1 57.4 247.6 122 247.6C186.6 247.6 239.2 193.1 239.2 126.2C239.2 59.2 186.6 4.8 122 4.8Z" fill="url(#paint4_radial_55_3714)"/>
<mask id="mask0_55_3714" style="mask-type:luminance" maskUnits="userSpaceOnUse" x="2" y="4" width="240" height="249">
<path d="M122.3 252.4C188.353 252.4 241.9 196.973 241.9 128.6C241.9 60.227 188.353 4.7998 122.3 4.7998C56.2467 4.7998 2.69995 60.227 2.69995 128.6C2.69995 196.973 56.2467 252.4 122.3 252.4Z" fill="white"/>
</mask>
<g mask="url(#mask0_55_3714)">
<path d="M134 252.4C134 252.4 253.4 172.9 156.7 80.6002C59.9999 -11.6998 7.3999 83.7002 7.3999 83.7002V-29.7998H276.1V260.3L134 252.4Z" fill="url(#paint5_radial_55_3714)"/>
</g>
<path d="M2.4 128.6C2.4 128.6 2.4 127.1 2.5 124.3C2.5 123.6 2.5 122.8 2.6 122C2.7 121.1 2.7 120.2 2.8 119.2C2.9 118.2 2.9 117.1 3 115.9C3.1 114.7 3.3 113.5 3.4 112.2C3.6 109.6 4.2 106.7 4.7 103.6C5 102.1 5.4 100.5 5.7 98.7998C6 97.0998 6.6 95.3998 7 93.6998C8.9 86.6998 11.8 78.8998 15.8 70.8998C19.8 62.8998 25.1 54.5998 31.8 46.7998C32.2 46.2998 32.6 45.7998 33 45.2998C33.4 44.7998 33.9 44.2998 34.3 43.8998C35.2 42.8998 36.1 41.9998 37 40.9998C37.9 40.0998 38.9 39.0998 39.8 38.1998L41.2 36.7998L42.7 35.3998C46.6 31.6998 51 28.2998 55.6 25.0998C60.2 21.8998 65.2 18.9998 70.3 16.3998C75.5 13.7998 80.9 11.6998 86.5 9.7998C92.1 7.9998 97.9 6.69981 103.8 5.69981C109.7 4.79981 115.7 4.3998 121.7 4.2998C127.7 4.3998 133.7 4.79981 139.6 5.69981C145.5 6.69981 151.3 7.9998 156.9 9.7998C162.5 11.5998 168 13.7998 173.1 16.3998C178.3 18.9998 183.2 21.8998 187.8 25.0998C192.4 28.2998 196.8 31.6998 200.7 35.3998L202.2 36.7998L203.6 38.1998C204.5 39.0998 205.5 40.0998 206.4 40.9998C207.3 41.9998 208.2 42.8998 209.1 43.8998C209.5 44.3998 210 44.8998 210.4 45.2998C210.8 45.7998 211.2 46.2998 211.6 46.7998C218.2 54.6998 223.6 62.8998 227.6 70.8998C231.7 78.8998 234.5 86.6998 236.4 93.6998C236.8 95.4998 237.4 97.1998 237.7 98.7998C238.1 100.5 238.4 102.1 238.7 103.6C239.2 106.7 239.8 109.6 240 112.2C240.2 113.5 240.3 114.7 240.4 115.9C240.5 117.1 240.6 118.2 240.6 119.2C240.7 120.2 240.7 121.2 240.8 122C240.8 122.9 240.8 123.6 240.9 124.3C240.9 123.6 240.9 122.8 240.8 122C240.7 121.1 240.7 120.2 240.6 119.2C240.5 118.2 240.4 117.1 240.3 115.9C240.2 114.7 240 113.5 239.8 112.2C239.5 109.6 238.9 106.8 238.4 103.7C238 102.2 237.7 100.6 237.3 98.8998C237 97.1998 236.4 95.5998 235.9 93.7998C233.9 86.7998 231 79.0998 226.9 71.0998C222.9 63.0998 217.5 54.8998 210.9 47.0998L209.7 45.5998C209.3 45.0998 208.8 44.5998 208.4 44.1998C207.5 43.1998 206.6 42.2998 205.7 41.2998C204.8 40.3998 203.8 39.3998 202.9 38.4998L201.5 37.0998L200 35.7998C196.1 32.0998 191.7 28.7998 187.1 25.5998C182.5 22.3998 177.6 19.5998 172.4 16.9998C167.2 14.4998 161.8 12.2998 156.2 10.4998C150.6 8.6998 144.8 7.3998 139 6.4998C133.1 5.5998 127.2 5.19981 121.2 5.19981C115.3 5.29981 109.3 5.6998 103.4 6.4998C97.6 7.4998 91.8 8.7998 86.2 10.4998C80.6 12.2998 75.2 14.3998 70 16.9998C64.9 19.5998 59.9 22.3998 55.3 25.5998C50.7 28.7998 46.3 32.0998 42.4 35.7998L40.9 37.0998L39.5 38.4998C38.6 39.3998 37.6 40.3998 36.7 41.2998C35.8 42.2998 34.9 43.1998 34 44.1998C33.6 44.6998 33.1 45.0998 32.7 45.5998L31.5 47.0998C24.9 54.8998 19.5 63.0998 15.5 71.0998C11.4 79.0998 8.6 86.7998 6.5 93.7998C6 95.5998 5.5 97.1998 5.1 98.8998C4.7 100.6 4.4 102.2 4 103.7C3.5 106.8 2.9 109.6 2.6 112.2C2.4 113.5 2.3 114.7 2.1 115.9C2 117.1 1.9 118.1 1.8 119.2C1.7 120.2 1.6 121.1 1.6 122C1.5 122.9 1.5 123.6 1.5 124.3C2.5 127.1 2.4 128.6 2.4 128.6Z" fill="#F7F7F8"/>
<defs>
<radialGradient id="paint0_radial_55_3714" cx="0" cy="0" r="1" gradientUnits="userSpaceOnUse" gradientTransform="translate(122 128.579) scale(121.724 121.724)">
<stop offset="0.5744" stop-color="#F7F7F8" stop-opacity="0"/>
<stop offset="0.7977" stop-color="#F7F7F8" stop-opacity="0.1"/>
<stop offset="1" stop-color="#F7F7F8" stop-opacity="0.2"/>
</radialGradient>
<radialGradient id="paint1_radial_55_3714" cx="0" cy="0" r="1" gradientUnits="userSpaceOnUse" gradientTransform="translate(125.823 76.4774) scale(191.309)">
<stop offset="0.4531" stop-color="#F7F7F8" stop-opacity="0"/>
<stop offset="0.5481" stop-color="#F7F7F8" stop-opacity="0.1"/>
<stop offset="1" stop-color="#F7F7F8" stop-opacity="0.2"/>
</radialGradient>
<linearGradient id="paint2_linear_55_3714" x1="122.356" y1="-61.5402" x2="122.323" y2="72.0017" gradientUnits="userSpaceOnUse">
<stop stop-color="#F7F7F8"/>
<stop offset="1" stop-color="#F7F7F8" stop-opacity="0"/>
</linearGradient>
<linearGradient id="paint3_linear_55_3714" x1="122.291" y1="318.395" x2="122.324" y2="184.853" gradientUnits="userSpaceOnUse">
<stop stop-color="#F7F7F8"/>
<stop offset="1" stop-color="#F7F7F8" stop-opacity="0"/>
</linearGradient>
<radialGradient id="paint4_radial_55_3714" cx="0" cy="0" r="1" gradientUnits="userSpaceOnUse" gradientTransform="translate(126.856 46.8417) scale(228.621 228.621)">
<stop offset="0.4531" stop-color="#F7F7F8" stop-opacity="0"/>
<stop offset="0.5481" stop-color="#F7F7F8" stop-opacity="0.1"/>
<stop offset="1" stop-color="#F7F7F8" stop-opacity="0.2"/>
</radialGradient>
<radialGradient id="paint5_radial_55_3714" cx="0" cy="0" r="1" gradientUnits="userSpaceOnUse" gradientTransform="translate(147.075 24.0966) scale(260.041 260.041)">
<stop offset="0.4531" stop-color="#F7F7F8" stop-opacity="0"/>
<stop offset="0.5481" stop-color="#F7F7F8" stop-opacity="0.1"/>
<stop offset="1" stop-color="#F7F7F8" stop-opacity="0.2"/>
</radialGradient>
</defs>
</svg>
