<svg width="850" height="673" viewBox="0 0 850 673" fill="none" xmlns="http://www.w3.org/2000/svg">
<path d="M762.381 350.396C765.629 337.936 768.877 325.475 770.501 312.473C771.042 309.222 771.313 305.7 772.395 302.721C774.019 298.116 781.869 289.718 784.575 285.655C791.612 275.09 788.635 259.65 776.726 252.065C772.937 249.627 768.335 248.273 763.734 247.46C759.403 246.647 755.073 246.647 750.742 247.46C743.975 249.085 742.081 252.878 738.021 257.212C734.232 261.546 730.442 263.442 729.901 269.673C729.36 276.445 730.171 283.488 731.525 289.989C732.066 291.885 732.337 294.052 732.066 295.949C731.796 297.574 730.983 298.928 730.171 300.283C717.45 323.85 703.376 346.875 688.489 369.358C687.406 370.984 686.053 372.88 684.429 373.693C683.076 374.505 681.452 374.776 679.828 375.047C640.04 381.007 599.17 386.153 558.841 385.341C547.743 385.07 536.646 384.528 526.09 387.779C503.084 394.551 482.513 426.244 500.918 448.186C508.226 456.854 519.324 461.459 530.691 463.627C546.39 466.877 552.074 478.254 568.043 477.442C592.403 475.816 619.74 471.482 643.829 467.961C683.346 462.272 724.488 447.915 743.975 408.908C751.554 393.467 755.343 376.943 759.403 360.148C760.757 356.898 761.569 353.647 762.381 350.396Z" fill="#FFC2C2"/>
<path d="M789.447 214.412C789.989 214.412 790.53 214.683 791.071 214.954C791.613 215.225 791.071 217.392 791.071 217.934C790.801 221.455 791.342 225.248 791.613 228.769C792.154 233.645 792.966 238.792 795.943 242.855C796.755 243.939 797.567 245.022 798.379 246.106C798.65 246.648 798.921 246.918 798.65 247.46C798.379 248.002 798.109 248.273 797.567 248.273C797.026 248.273 796.485 248.002 796.214 248.002C794.049 247.189 791.883 246.106 789.989 245.022C789.447 244.751 788.906 244.48 788.635 243.939C788.094 243.397 787.823 242.855 787.553 242.313C784.575 235.812 781.869 228.769 781.598 221.455C781.598 220.101 781.598 218.746 781.869 217.663C782.139 216.308 782.951 215.225 784.305 214.683C785.929 213.87 787.553 214.412 789.177 214.683" fill="#212020"/>
<path d="M749.659 195.721C751.013 194.096 752.637 192.741 754.531 192.2C757.509 191.116 761.298 191.929 764.546 192.471C768.606 193.283 772.666 194.096 776.455 195.179C784.575 197.076 792.424 199.514 800.274 201.681C802.168 202.222 804.063 202.764 806.228 203.306C808.123 203.848 807.311 205.202 808.123 207.369C808.123 207.64 808.394 207.64 808.394 207.64C807.582 210.349 806.77 213.058 806.228 216.038C804.604 215.767 802.98 215.496 801.356 215.767C797.296 216.308 793.778 220.101 789.718 220.643C787.823 220.913 785.658 220.643 783.492 220.643C781.327 220.643 779.162 221.726 778.35 223.622C778.079 224.164 778.079 224.706 777.808 225.248C777.267 226.331 775.914 226.873 774.831 227.415L767.253 229.311C763.734 229.311 760.215 226.331 759.945 222.539C759.674 219.83 760.486 217.392 761.027 214.954C761.298 214.141 761.569 212.245 761.298 211.432C761.027 210.62 759.674 210.62 759.133 210.349C756.967 209.807 754.531 209.265 752.366 208.453C750.201 207.64 747.494 206.015 746.953 203.577C746.411 200.868 748.306 197.617 749.659 195.721Z" fill="#00C8FF"/>
<path d="M760.486 236.354L768.065 238.792C771.312 239.876 774.831 237.979 775.643 234.729L777.538 229.04C778.62 225.79 776.726 222.268 773.478 221.184L765.899 218.747C762.651 217.663 759.133 219.559 758.321 222.81L756.426 228.498C755.343 231.749 757.238 235.271 760.486 236.354Z" fill="#008BD6"/>
<path d="M775.373 223.894L769.689 242.585" stroke="#212020" stroke-width="0.75" stroke-miterlimit="10" stroke-linecap="round" stroke-linejoin="round"/>
<path d="M769.959 221.997L764.005 240.417" stroke="#212020" stroke-width="0.75" stroke-miterlimit="10" stroke-linecap="round" stroke-linejoin="round"/>
<path d="M764.546 219.83L758.591 238.521" stroke="#212020" stroke-width="0.75" stroke-miterlimit="10" stroke-linecap="round" stroke-linejoin="round"/>
<path d="M793.507 300.012C792.966 295.407 791.883 290.531 789.176 286.739C784.846 281.05 777.538 278.883 770.771 276.987C773.749 274.007 773.749 268.589 771.042 265.88C775.373 263.172 776.185 256.399 772.666 252.607C776.185 252.336 778.079 248.002 779.162 244.48C779.432 243.126 779.974 241.772 779.432 240.688C778.891 238.792 776.726 237.979 774.831 237.437C768.335 235.541 761.839 233.645 755.343 231.749C754.531 231.478 753.719 231.207 752.907 231.478C751.825 231.749 750.742 232.561 749.93 233.374C735.585 246.647 726.112 265.339 721.51 284.571C717.45 301.095 716.638 318.161 716.638 334.956C716.638 343.624 716.638 355.002 726.111 359.336C731.254 361.503 760.215 363.67 769.147 363.399C773.207 363.399 777.538 363.128 781.327 361.503C790.53 357.71 791.883 342.27 793.236 333.873C794.59 322.495 794.86 311.118 793.507 300.012Z" fill="#FF792B"/>
<path d="M802.98 215.496L808.935 216.85C811.642 217.392 814.348 215.767 814.89 213.058L815.431 210.891C815.972 208.182 814.348 205.473 811.912 204.661L805.958 203.306L802.98 215.496Z" fill="#212020"/>
<path d="M778.079 222.81C772.936 220.372 767.794 218.747 762.11 217.663" stroke="#212020" stroke-width="0.75" stroke-miterlimit="10" stroke-linecap="round" stroke-linejoin="round"/>
<path d="M760.215 210.62C763.193 210.62 765.899 211.161 768.606 212.245" stroke="#212020" stroke-width="0.75" stroke-miterlimit="10" stroke-linecap="round" stroke-linejoin="round"/>
<path d="M772.937 253.149C771.313 252.336 769.418 251.794 767.794 251.523" stroke="#212020" stroke-width="0.75" stroke-miterlimit="10" stroke-linecap="round" stroke-linejoin="round"/>
<path d="M770.771 266.422C769.147 265.88 767.794 265.068 766.17 264.255" stroke="#212020" stroke-width="0.75" stroke-miterlimit="10" stroke-linecap="round" stroke-linejoin="round"/>
<path d="M772.125 306.784C779.162 318.703 778.621 344.979 760.215 344.979C754.531 344.979 737.75 342.27 734.773 336.853C733.69 334.956 733.69 332.789 733.69 330.622C733.69 320.058 735.314 309.493 738.021 299.199C739.104 295.136 740.457 291.073 742.893 287.551C746.411 282.134 752.637 277.529 756.967 284.843C759.403 288.635 759.133 293.511 762.381 296.762C765.899 300.554 769.689 302.45 772.125 306.784Z" fill="#FFBB00"/>
<path d="M736.668 259.921C732.878 261.817 727.736 258.296 727.736 254.232C727.465 249.356 733.69 245.835 737.209 243.397C737.75 243.126 738.292 242.584 739.104 242.584C743.164 241.772 745.329 248.002 744.517 250.711C743.434 254.232 739.916 258.296 736.668 259.921Z" fill="#FFC2C2"/>
<path d="M789.177 271.298C789.989 270.757 790.53 269.944 790.801 268.86C791.071 267.777 790.53 266.693 789.989 265.881C789.447 265.068 788.635 264.255 787.823 263.714C789.718 262.901 791.071 260.734 791.071 258.838C791.071 256.671 789.718 254.774 788.094 253.691C791.342 251.253 788.906 246.377 786.199 244.481C784.034 243.126 781.327 242.314 778.891 241.772C773.207 240.417 767.523 238.25 761.569 237.979C759.133 237.979 755.073 237.979 753.178 239.876C751.283 242.043 752.095 245.293 754.802 246.106C757.509 246.919 759.945 247.731 762.651 248.544C759.133 248.002 745.87 243.939 747.224 251.524C747.494 253.149 748.577 254.233 749.93 255.316C751.283 256.129 752.637 256.671 753.99 257.212C752.907 257.483 752.095 257.754 751.283 258.296C750.742 258.567 750.201 259.109 749.93 259.65C749.389 260.734 749.659 262.088 750.471 262.901C751.283 263.714 752.366 264.526 753.449 264.797C754.531 265.339 755.614 265.61 756.697 265.881C754.531 265.339 752.907 268.048 753.449 269.944C753.99 272.111 756.155 273.195 758.05 274.007C764.546 276.445 771.583 277.8 778.621 278.341C781.327 278.341 785.387 279.696 787.823 278.071C788.906 277.258 789.718 276.174 789.718 274.82C789.718 274.549 789.177 271.298 788.365 271.569C788.635 271.84 788.906 271.569 789.177 271.298Z" fill="#FFC2C2"/>
<path d="M753.99 257.754C756.697 258.296 776.185 260.463 779.703 260.734" stroke="#292929" stroke-width="0.75" stroke-miterlimit="10" stroke-linecap="round" stroke-linejoin="round"/>
<path d="M755.885 266.964C756.426 266.964 756.967 267.235 757.509 267.235C764.275 268.048 771.042 269.402 777.809 270.757" stroke="#292929" stroke-width="0.75" stroke-miterlimit="10" stroke-linecap="round" stroke-linejoin="round"/>
<path d="M761.839 248.815C768.065 250.44 774.29 251.795 780.786 252.336" stroke="#292929" stroke-width="0.75" stroke-miterlimit="10" stroke-linecap="round" stroke-linejoin="round"/>
<path d="M823.28 208.724C828.964 210.62 835.731 209.536 840.873 206.015C845.745 202.493 848.723 196.263 848.723 190.033" stroke="#6CCAE4" stroke-width="0.75" stroke-miterlimit="10" stroke-linecap="round" stroke-linejoin="round"/>
<path d="M827.882 216.851C833.566 217.663 839.25 219.018 844.663 220.643" stroke="#6CCAE4" stroke-width="0.75" stroke-miterlimit="10" stroke-linecap="round" stroke-linejoin="round"/>
<path d="M825.446 226.061C832.754 229.311 840.873 233.374 842.227 241.23" stroke="#6CCAE4" stroke-width="0.75" stroke-miterlimit="10" stroke-linecap="round" stroke-linejoin="round"/>
<path d="M553.157 133.418C551.262 130.167 549.638 126.916 548.285 123.395C546.931 120.415 544.766 117.706 546.119 114.456C546.931 112.83 548.014 111.476 549.367 110.122C550.179 109.309 550.991 108.496 552.074 108.225C553.157 107.954 553.969 108.225 555.051 108.767C557.217 109.58 559.653 110.663 561.547 111.747C563.442 107.142 566.149 102.808 569.667 99.2861C572.374 96.5773 576.163 92.2431 580.494 94.1393C582.659 95.2229 584.283 97.1191 585.907 98.7444C589.696 102.808 594.298 105.787 598.358 109.309C602.418 112.83 606.207 117.165 607.831 122.582C610.267 131.521 607.56 144.253 607.56 153.734C607.29 164.299 612.974 176.218 615.139 186.511C617.846 199.243 619.74 212.245 621.094 225.519C624.071 254.233 627.59 291.886 615.68 318.703C604.312 344.708 585.907 366.108 567.502 387.237C550.45 406.741 529.609 418.118 506.873 399.698C498.753 393.197 490.092 383.716 489.821 372.88C489.55 362.858 497.67 352.564 502.813 344.166C514.722 324.663 529.338 306.513 546.119 290.802C548.285 288.906 550.179 287.01 551.533 284.301C552.886 281.863 553.157 278.883 553.427 275.903C556.134 248.273 559.111 220.643 561.818 193.012C562.901 181.364 565.607 168.904 563.983 157.256C562.359 146.962 558.299 142.086 553.157 133.418Z" fill="#FFC2C2"/>
<path d="M509.58 117.978C512.016 116.894 514.451 115.811 516.887 114.727C515.534 116.894 513.91 118.79 512.016 120.416L533.939 140.461C537.458 140.19 540.977 139.107 544.225 137.752C543.142 140.732 542.059 143.983 540.706 146.692L542.33 148.046C545.307 146.15 548.285 144.524 550.991 142.628C549.909 145.879 548.285 148.859 546.119 151.297L579.14 181.094C580.223 180.823 581.035 180.552 582.118 180.281C581.847 181.094 581.306 181.907 581.035 182.719L600.523 200.327C601.335 194.909 602.147 189.221 604.312 184.615C605.124 182.719 615.139 167.279 614.868 167.008C612.162 163.486 608.372 161.59 604.583 159.152C594.298 152.38 586.178 142.899 577.516 134.231C561.818 118.79 544.225 106.601 528.797 90.8892C520.406 98.7448 510.392 104.704 499.565 108.768L509.58 117.978Z" fill="#FFD700"/>
<path d="M609.726 176.76L521.489 96.8485C517.97 93.8688 517.699 88.4511 520.947 85.2004C523.925 81.6789 529.338 81.408 532.586 84.6587L620.823 164.57C624.341 167.55 624.612 172.967 621.364 176.218C618.387 179.469 613.244 179.739 609.726 176.76Z" fill="#008BD6"/>
<path d="M607.29 164.028C621.364 143.982 617.575 117.977 600.252 100.912C592.132 92.7851 581.035 87.0965 569.397 85.7421C556.946 84.3877 546.661 88.9927 536.375 95.494C529.879 99.5572 536.375 109.58 542.871 105.517C550.721 100.37 558.57 96.3066 568.314 97.3902C576.704 98.4737 584.554 102.266 590.779 107.955C604.312 119.874 609.455 140.461 598.628 155.901C594.298 162.403 602.959 170.258 607.29 164.028Z" fill="#008BD6"/>
<path d="M520.677 95.7651L609.726 176.76" stroke="#212020" stroke-width="0.75" stroke-miterlimit="10" stroke-linecap="round" stroke-linejoin="round"/>
<path d="M509.038 117.707C514.181 115.539 518.782 112.831 523.113 109.309" stroke="#212020" stroke-width="0.75" stroke-miterlimit="10" stroke-linecap="round" stroke-linejoin="round"/>
<path d="M543.413 137.752C545.849 136.127 548.014 134.231 549.909 132.063" stroke="#212020" stroke-width="0.75" stroke-miterlimit="10" stroke-linecap="round" stroke-linejoin="round"/>
<path d="M550.179 143.441C552.345 141.815 554.239 140.19 556.134 138.294" stroke="#212020" stroke-width="0.75" stroke-miterlimit="10" stroke-linecap="round" stroke-linejoin="round"/>
<path d="M581.035 182.448C584.012 177.843 587.26 173.509 591.05 169.717" stroke="#212020" stroke-width="0.75" stroke-miterlimit="10" stroke-linecap="round" stroke-linejoin="round"/>
<path d="M576.975 178.927C576.704 178.385 576.975 177.572 577.516 177.031C581.035 171.884 585.095 167.55 589.696 163.486" stroke="#212020" stroke-width="0.75" stroke-miterlimit="10" stroke-linecap="round" stroke-linejoin="round"/>
<path d="M558.57 161.861C562.9 157.527 567.502 153.193 572.103 149.4" stroke="#212020" stroke-width="0.75" stroke-miterlimit="10" stroke-linecap="round" stroke-linejoin="round"/>
<path d="M579.682 151.296C575.351 155.089 573.998 159.152 570.208 163.757" stroke="#212020" stroke-width="0.75" stroke-miterlimit="10" stroke-linecap="round" stroke-linejoin="round"/>
<path d="M539.353 113.373C534.481 116.894 529.338 119.874 523.654 121.499" stroke="#212020" stroke-width="0.75" stroke-miterlimit="10" stroke-linecap="round" stroke-linejoin="round"/>
<path d="M546.119 118.79C539.894 124.479 532.315 128.813 524.195 131.251" stroke="#212020" stroke-width="0.75" stroke-miterlimit="10" stroke-linecap="round" stroke-linejoin="round"/>
<path d="M595.11 197.347C596.734 188.408 600.523 180.281 606.207 173.238" stroke="#212020" stroke-width="0.75" stroke-miterlimit="10" stroke-linecap="round" stroke-linejoin="round"/>
<path d="M602.147 169.446C599.982 171.071 598.628 173.509 597.275 175.676C594.298 180.281 591.862 184.886 589.155 189.762" stroke="#212020" stroke-width="0.75" stroke-miterlimit="10" stroke-linecap="round" stroke-linejoin="round"/>
<path d="M611.62 155.901L601.064 146.149" stroke="#212020" stroke-width="0.75" stroke-miterlimit="10" stroke-linecap="round" stroke-linejoin="round"/>
<path d="M551.803 101.183L541.247 91.7017" stroke="#212020" stroke-width="0.75" stroke-miterlimit="10" stroke-linecap="round" stroke-linejoin="round"/>
<path d="M554.239 411.888C567.231 396.177 579.411 379.653 590.508 362.587C575.351 354.731 562.63 340.645 548.285 330.893C536.105 322.767 526.902 313.015 513.91 306.785C507.685 316.807 495.776 331.706 487.385 339.833C485.49 341.458 484.408 343.354 482.242 344.979C479.806 346.876 477.37 348.501 474.934 350.397C470.062 353.919 464.92 357.169 459.777 360.149C450.845 365.296 441.913 370.443 432.711 375.048C434.876 403.22 451.657 427.87 467.897 451.167C470.604 454.959 473.581 459.022 477.912 460.918C485.49 464.44 489.009 457.668 494.964 454.688C502.272 450.896 509.85 447.374 516.888 443.04C530.15 434.643 543.954 424.62 554.239 411.888Z" fill="#0C2B5F"/>
<path d="M612.703 289.448C612.974 298.116 611.35 306.784 608.643 314.911" stroke="#1C1C1B" stroke-width="0.75" stroke-miterlimit="10" stroke-linecap="round" stroke-linejoin="round"/>
<path d="M605.936 321.412C604.854 323.308 603.771 324.934 602.688 326.83" stroke="#1C1C1B" stroke-width="0.75" stroke-miterlimit="10" stroke-linecap="round" stroke-linejoin="round"/>
<path d="M292.777 346.334C282.221 335.228 268.146 327.643 258.132 316.266C252.448 309.764 246.222 304.076 241.35 296.762C236.208 289.448 236.208 282.134 237.29 273.466C238.644 259.38 241.08 245.565 244.057 231.749C248.117 213.058 252.448 194.638 252.989 175.405C252.989 172.967 252.989 170.529 253.53 168.091C254.884 159.423 257.32 153.464 254.072 144.524C252.177 139.378 249.47 134.502 248.658 128.813C248.117 123.937 249.2 119.332 248.929 114.456C248.929 113.643 248.929 113.102 248.388 112.56C247.305 111.205 244.869 112.289 243.516 113.643C236.208 120.957 235.125 130.709 239.726 139.919C238.102 136.94 229.983 135.585 227.547 137.21C225.652 138.294 224.299 140.19 223.216 142.086C218.073 150.213 213.201 159.965 213.743 169.717C213.743 171.071 214.013 172.696 213.743 174.051C213.472 175.134 212.931 176.218 212.389 177.302C208.059 185.157 204.54 193.013 201.021 201.139C197.503 208.995 194.255 216.851 190.736 224.436C185.052 237.438 180.18 250.982 176.12 264.527C171.79 278.613 169.895 293.24 172.331 307.868C176.391 330.894 192.901 348.23 208.871 364.483C226.193 382.362 249.2 401.053 267.605 417.577C285.198 409.45 301.167 397.802 314.701 383.716C305.498 371.797 303.333 357.44 292.777 346.334Z" fill="#FFC2C2"/>
<path d="M301.438 0.684105C318.761 -1.75386 336.625 2.5803 352.864 9.62332C349.616 13.6866 343.662 15.041 339.061 12.8739C349.616 18.2917 360.984 24.7929 365.315 35.8992C360.172 34.8157 355.03 33.1903 350.428 30.4815C360.172 39.6916 364.232 54.5903 360.443 67.3219C357.466 65.6966 355.03 63.2586 353.676 60.2789C355.842 67.5928 354.759 75.7193 350.699 82.2206C348.263 79.7826 346.368 76.8029 344.745 73.8231C345.015 79.5117 343.391 85.2003 339.873 89.8054C337.707 84.9294 335.542 80.3244 333.647 75.4485C332.835 86.8256 326.339 97.6611 316.866 103.891C316.325 99.2864 315.783 94.9522 315.242 90.3472C313.347 97.3902 308.475 103.35 302.25 106.329C302.521 99.8281 303.333 93.056 304.145 86.5548C302.521 91.9725 298.461 96.5775 293.318 99.0155C295.754 88.9927 297.649 78.6991 298.461 68.4054C296.025 73.5523 293.318 78.4282 290.882 83.575C288.176 77.0738 292.235 70.0308 294.942 63.8004C297.649 57.57 302.521 48.6308 296.566 45.3802C293.047 43.484 284.657 44.0258 280.597 44.0258C274.372 44.0258 266.252 40.5042 263.274 34.8157C260.297 29.3979 263.004 25.8764 266.793 21.0005C274.372 9.62332 287.634 2.5803 301.438 0.684105Z" fill="#FFD700"/>
<path d="M184.379 216.67L193.105 221.007L282.556 40.7519L273.83 36.4143L184.379 216.67Z" fill="#FF8100"/>
<path d="M270.853 52.1523C261.38 47.5472 257.049 36.7118 261.38 28.0435L295.754 45.1092C291.424 53.7776 280.326 57.0282 270.853 52.1523Z" fill="#FF8100"/>
<path d="M297.649 71.6562C298.731 65.9676 299.814 60.5499 300.897 54.8613" stroke="#212020" stroke-width="0.75" stroke-miterlimit="10" stroke-linecap="round" stroke-linejoin="round"/>
<path d="M302.521 90.889C304.415 85.7421 305.498 80.3244 305.769 74.9067" stroke="#212020" stroke-width="0.75" stroke-miterlimit="10" stroke-linecap="round" stroke-linejoin="round"/>
<path d="M314.971 94.6812C316.054 86.5546 317.407 78.6989 319.031 70.8433" stroke="#212020" stroke-width="0.75" stroke-miterlimit="10" stroke-linecap="round" stroke-linejoin="round"/>
<path d="M332.835 76.8028C332.294 60.0079 322.821 44.0256 308.746 35.0864" stroke="#212020" stroke-width="0.75" stroke-miterlimit="10" stroke-linecap="round" stroke-linejoin="round"/>
<path d="M345.286 75.9902C344.203 71.3851 342.85 67.051 341.226 62.7168" stroke="#212020" stroke-width="0.75" stroke-miterlimit="10" stroke-linecap="round" stroke-linejoin="round"/>
<path d="M353.947 62.9877C353.135 58.9244 350.97 55.132 348.263 51.6105C345.557 48.3599 342.579 45.3801 339.602 42.4004" stroke="#212020" stroke-width="0.75" stroke-miterlimit="10" stroke-linecap="round" stroke-linejoin="round"/>
<path d="M351.782 32.1066C346.098 29.3978 340.955 25.3345 334.73 23.7092C327.963 21.813 320.655 23.1674 313.618 21.813" stroke="#212020" stroke-width="0.75" stroke-miterlimit="10" stroke-linecap="round" stroke-linejoin="round"/>
<path d="M342.579 14.2285C341.226 13.9576 340.143 13.4158 338.79 12.8741C335.813 11.7905 332.565 11.5196 329.587 12.0614" stroke="#212020" stroke-width="0.75" stroke-miterlimit="10" stroke-linecap="round" stroke-linejoin="round"/>
<path d="M274.642 53.2361C272.477 52.4234 270.041 51.3399 268.146 50.2563" stroke="#212020" stroke-width="0.75" stroke-miterlimit="10" stroke-linecap="round" stroke-linejoin="round"/>
<path d="M223.757 176.489C222.404 177.031 220.78 176.76 219.156 176.489C214.284 175.134 209.953 174.051 206.435 170.258C205.081 168.904 203.728 167.55 202.916 165.924C201.833 164.028 201.833 162.132 202.645 159.965C202.916 159.694 205.623 155.36 206.164 156.172C204.811 154.276 204.54 151.838 205.352 149.671C206.164 147.504 207.788 145.608 209.953 144.795C209.412 142.086 208.871 138.836 209.683 136.127C210.765 133.418 214.013 131.251 216.449 132.605C215.908 129.084 217.261 126.375 220.509 125.562C224.028 125.021 225.652 124.479 230.524 129.355C234.584 133.418 240.809 140.732 243.786 146.15C245.952 150.213 241.08 152.922 236.208 151.567C240.268 157.256 236.478 162.674 229.712 159.965C231.606 160.777 232.96 162.945 232.96 165.112C232.689 167.279 230.794 169.175 228.629 169.175C227.817 169.175 227.005 168.904 225.923 168.633C224.569 168.091 223.216 167.82 222.133 167.279C223.757 167.82 225.923 171.884 225.652 173.509C225.923 175.134 225.111 175.947 223.757 176.489Z" fill="#FFC2C2"/>
<path d="M241.08 142.899C243.245 144.524 244.869 146.962 245.14 149.671C245.14 151.025 244.598 152.38 243.516 152.922C242.974 153.193 242.433 153.193 241.892 153.193C239.997 153.193 238.102 152.922 236.208 152.109C237.561 153.463 238.102 155.631 237.561 157.256C236.478 161.048 233.23 161.048 229.982 160.506C230.794 161.861 231.606 163.215 231.877 164.841C232.148 166.466 231.606 168.362 230.253 169.175C229.441 169.717 228.629 169.717 227.546 169.987C225.652 170.258 223.486 170.258 221.863 168.904C222.945 170.258 225.652 173.238 224.569 175.405C223.216 178.114 217.532 177.301 215.367 176.489C212.66 175.676 210.224 173.78 208.059 172.155" stroke="#1C1C1B" stroke-width="0.75" stroke-miterlimit="10" stroke-linecap="round" stroke-linejoin="round"/>
<path d="M247.846 110.122C244.869 114.456 242.162 119.061 239.997 123.937" stroke="#1C1C1B" stroke-width="0.75" stroke-miterlimit="10" stroke-linecap="round" stroke-linejoin="round"/>
<path d="M236.208 151.567C231.336 147.504 227.005 142.899 223.216 137.752" stroke="#1C1C1B" stroke-width="0.75" stroke-miterlimit="10" stroke-linecap="round" stroke-linejoin="round"/>
<path d="M230.795 161.319C225.923 155.631 219.427 151.567 213.201 147.775" stroke="#1C1C1B" stroke-width="0.75" stroke-miterlimit="10" stroke-linecap="round" stroke-linejoin="round"/>
<path d="M222.675 169.175C218.885 165.653 214.825 162.674 210.495 159.965" stroke="#1C1C1B" stroke-width="0.75" stroke-miterlimit="10" stroke-linecap="round" stroke-linejoin="round"/>
<path d="M232.148 283.759C231.877 287.281 231.336 290.531 231.065 294.053" stroke="#1C1C1B" stroke-width="0.75" stroke-miterlimit="10" stroke-linecap="round" stroke-linejoin="round"/>
<path d="M281.95 484.756V403.491C244.057 413.784 210.224 434.372 175.579 453.605L175.85 456.043C170.166 433.017 153.926 414.055 138.498 395.364C129.295 400.511 120.093 405.658 110.89 410.534C103.582 414.326 96.2741 418.119 88.4248 421.369C95.7328 446.291 103.041 470.67 114.95 494.508C124.694 514.554 139.039 537.308 162.858 541.642C175.85 544.08 189.654 541.642 202.375 538.121C222.404 532.432 241.351 523.764 258.944 512.928C265.71 508.594 274.913 503.989 280.056 497.759C283.033 493.967 281.95 489.632 281.95 484.756Z" fill="#FFC2C2"/>
<path d="M75.9742 393.197C77.8688 398.886 79.7635 404.574 81.6581 410.263C82.7408 413.242 83.5528 416.222 83.2821 419.202C83.0115 425.161 83.0115 426.787 89.2368 425.703C95.1914 424.349 101.417 421.369 106.83 419.202C118.739 414.055 130.107 408.096 140.934 400.782C143.099 399.427 145.535 396.448 143.64 394.551C142.828 393.739 141.475 393.468 140.392 393.468C132.272 391.843 127.671 383.174 123.07 376.673C118.198 369.63 113.326 362.316 114.138 353.106C114.409 349.584 115.491 346.063 116.303 342.541C117.927 333.873 115.762 324.663 116.574 315.995C116.845 313.015 117.115 309.764 117.657 306.785C118.198 304.347 119.281 301.638 119.551 299.2C119.822 297.574 119.01 295.678 117.386 294.866C116.303 294.324 115.221 294.595 114.138 295.136C112.243 295.949 111.161 297.574 110.078 298.929C106.83 303.534 106.289 308.952 106.018 314.64C105.747 317.62 105.477 325.476 100.605 323.579C98.9807 323.038 97.898 321.412 97.3567 319.787C94.9207 313.557 94.3794 306.514 92.4847 300.012C90.3194 292.428 88.4248 284.843 86.5301 277.258C85.7181 274.278 85.7181 270.215 84.0941 267.777C82.4701 265.61 78.6808 265.881 77.0568 268.319C76.2448 269.402 76.2448 271.028 75.9742 272.382C75.4328 281.863 78.4102 289.99 80.0342 299.2C80.3048 300.554 80.5755 305.43 80.8461 306.785C79.4928 302.179 77.8688 300.012 74.3502 299.742C70.8315 299.471 68.1249 303.263 68.3956 306.514C67.0422 304.076 63.5236 302.179 60.8169 303.805C59.4636 304.617 58.6516 306.514 58.1103 307.868C57.8396 308.952 57.569 312.473 57.8396 313.015C57.0276 311.931 55.945 311.119 54.5916 310.848C52.9677 310.848 51.6143 311.931 50.8023 313.557C50.261 314.911 50.261 316.807 50.5317 318.162C50.8023 320.058 51.073 321.954 51.6143 323.85C54.0503 331.706 55.6743 340.103 59.1929 347.688C65.6889 362.587 70.8315 377.756 75.9742 393.197Z" fill="#FFBB00"/>
<path d="M320.114 353.918C308.205 345.25 296.566 336.311 284.657 327.643C280.326 333.331 275.454 338.749 270.582 344.167C260.026 355.002 248.388 365.025 237.561 375.86C231.607 381.82 225.652 387.779 219.697 393.739C222.675 397.26 226.464 400.24 229.983 403.22C241.892 412.971 253.53 422.723 265.44 432.475C269.77 435.997 273.83 438.976 278.432 441.685C278.432 441.685 278.702 441.956 278.973 441.956C283.304 444.394 291.965 452.792 297.107 452.792C298.731 453.604 300.355 454.146 301.979 454.959C307.663 443.582 313.347 432.204 319.031 420.556C323.362 411.617 327.963 402.949 332.294 394.009C333.918 390.488 335.813 386.966 337.437 383.716C341.226 376.402 348.804 372.88 354.218 367.192C342.038 369.359 330.129 361.503 320.114 353.918Z" fill="#0C2B5F"/>
<path d="M199.127 427.328C198.315 425.974 234.855 403.22 238.644 401.052C251.365 393.739 264.357 387.508 278.161 382.632C292.506 377.485 307.122 373.693 322.009 370.713C325.257 370.171 330.67 368.004 333.918 368.546C337.978 369.359 338.79 373.151 340.685 376.944C344.745 385.07 347.992 393.468 350.428 402.407C351.511 406.741 352.323 410.804 352.864 415.138C355.03 433.288 351.24 451.708 347.722 469.857C336.354 480.693 318.761 481.505 304.145 486.923C285.74 493.695 270.312 507.51 251.365 512.115" fill="#0C2B5F"/>
<path d="M152.031 531.349C158.256 536.225 170.978 538.392 176.932 536.225" stroke="#1C1C1B" stroke-width="0.75" stroke-miterlimit="10" stroke-linecap="round" stroke-linejoin="round"/>
<path d="M247.035 584.713C244.869 589.047 242.433 593.381 239.185 597.174C234.855 602.591 227.817 606.384 221.592 609.634C218.344 611.53 218.615 612.072 215.096 612.885C214.284 613.156 208.059 613.698 207.517 613.698C205.893 613.427 203.187 611.801 201.292 610.718C198.585 609.092 196.42 607.196 194.255 604.758C190.195 600.153 187.218 594.465 185.052 588.505C180.722 576.857 180.451 563.855 182.075 551.665C187.218 510.761 211.577 474.733 239.185 444.123C250.012 432.204 262.192 420.285 277.89 416.222C284.116 414.597 291.424 414.326 296.296 418.389C301.98 422.723 303.333 430.579 303.604 437.893C303.874 447.645 303.333 457.126 301.438 466.607C300.626 471.212 300.085 475.004 297.649 479.068C295.213 482.86 293.048 486.923 290.612 490.986C281.68 506.969 274.101 523.764 266.522 540.559C261.109 553.29 255.696 566.022 250.012 578.482C248.929 580.92 248.117 582.817 247.035 584.713Z" fill="#FFC2C2"/>
<path d="M597.816 376.673C573.727 380.194 526.902 378.027 505.79 386.425C483.054 395.364 481.701 405.387 478.182 429.766C474.122 457.668 490.092 474.192 515.264 475.817C548.555 477.984 555.593 485.298 587.802 486.381C587.531 451.166 599.711 411.617 597.816 376.673Z" fill="#0C2B5F"/>
<path d="M500.106 557.624C498.753 556.541 497.129 555.728 495.234 555.457C493.61 555.186 491.445 555.999 490.904 557.624C490.362 558.979 490.904 560.333 491.716 561.687C493.61 564.938 496.317 567.376 499.024 570.085C503.084 573.877 507.144 577.67 512.016 579.566C517.7 581.733 529.067 582.275 523.925 574.69C519.865 567.918 506.332 561.687 500.106 557.624Z" fill="#FFBB00"/>
<path d="M279.244 671.938H515.805C514.181 630.492 512.286 589.047 512.016 547.872C512.016 522.409 512.016 497.217 512.016 471.753C512.016 444.123 502.272 418.66 484.408 397.26C458.965 366.921 418.095 360.42 381.555 363.399C364.503 364.754 331.753 364.754 316.866 373.964C281.68 395.906 284.386 442.227 282.221 481.234C282.221 482.86 281.95 484.756 281.95 486.381C280.868 527.285 278.973 647.558 279.244 671.938Z" fill="#0C2B5F"/>
<path d="M349.075 260.463C349.617 254.503 350.97 246.377 351.782 240.417C368.292 238.521 390.758 232.833 404.562 243.668C414.847 251.795 422.425 262.901 427.027 275.091C432.169 288.906 429.192 289.448 426.215 303.805C422.696 320.599 418.365 357.169 437.041 367.192C437.853 367.733 438.936 368.004 439.748 368.546C436.5 375.047 431.899 380.194 426.756 385.341C420.801 391.03 413.493 395.364 405.915 398.614C403.75 399.427 401.855 400.24 399.69 401.052C397.254 401.865 395.088 402.678 392.652 402.949C388.863 403.49 385.344 401.594 382.367 399.427C376.954 395.364 372.623 390.217 368.834 384.528C367.21 382.09 365.856 379.111 364.503 376.673C363.962 375.86 359.902 365.566 359.631 365.566C363.962 365.837 366.127 363.128 366.398 359.065C367.21 350.939 367.751 342.541 367.751 334.415C367.751 330.893 368.022 329.81 365.315 327.642C352.323 316.807 347.993 302.45 347.993 285.655" fill="#FFC2C2"/>
<path d="M439.207 277.529C438.395 273.466 437.041 269.673 436.5 265.881C435.959 262.63 436.771 259.109 436.771 255.858C436.771 255.587 436.771 255.045 437.041 254.774C437.312 254.504 437.312 254.504 437.583 254.233C440.56 252.878 443.808 250.44 440.019 247.19C438.395 245.835 435.959 245.564 433.793 245.293C435.688 245.564 437.312 245.293 439.207 244.752C440.019 244.481 441.101 243.397 440.831 242.585C440.56 242.314 440.289 242.043 440.019 241.772C437.041 240.147 433.793 239.334 430.545 239.063C432.981 235 434.335 230.395 434.335 225.519C434.335 224.164 434.064 222.539 432.711 221.726C431.628 221.185 430.275 221.456 429.463 221.997C426.756 223.081 424.32 224.977 422.696 227.144C414.305 221.456 405.103 216.851 395.9 212.245C391.028 209.807 385.615 206.828 380.202 207.64C379.66 207.64 379.119 207.911 378.848 208.182C378.307 208.724 378.036 209.537 378.036 210.078C378.036 211.975 378.578 214.142 379.66 215.496C373.976 211.162 367.21 208.724 360.172 208.182C358.819 208.182 357.195 208.182 355.842 208.724C350.158 211.975 356.924 219.018 360.443 220.643C357.466 221.185 354.759 221.997 351.782 222.539C349.887 223.081 347.451 223.623 346.91 225.519C346.369 226.873 346.91 228.228 347.722 229.311C348.534 230.395 349.887 231.207 350.97 231.749C353.406 232.833 355.842 233.645 358.278 233.645C354.218 234.729 350.428 236.625 347.181 239.063C345.557 240.147 344.203 241.501 343.391 243.397C340.143 251.253 354.218 248.273 358.007 247.461C361.796 246.919 369.646 246.648 372.623 244.21C371.54 245.023 370.187 246.106 369.646 247.461C368.834 248.815 368.834 250.44 369.916 251.524C370.999 252.878 373.164 252.878 374.788 252.607C378.578 252.066 382.367 251.253 386.156 249.899C388.592 249.086 392.652 248.002 394.818 246.648C393.464 247.731 391.84 248.815 391.028 250.169C390.216 251.524 389.946 253.691 391.028 255.045C391.84 255.858 392.923 256.4 394.276 256.671C396.171 257.212 402.126 256.129 403.479 256.942C404.291 257.754 404.02 264.255 404.291 265.881C404.561 267.506 405.103 268.861 406.185 270.215C407.268 271.298 408.892 272.111 410.245 271.84C411.328 271.569 412.411 270.757 413.223 271.569C413.764 271.84 413.764 272.382 413.764 272.924C414.847 278.071 416.471 282.134 418.907 286.468C421.613 291.073 421.613 297.574 422.425 302.992C422.696 304.888 424.049 307.055 425.673 306.514C426.215 306.243 426.756 305.701 427.297 305.159C429.733 301.638 431.899 297.574 433.523 293.511C434.876 289.99 437.041 286.468 436.771 282.676C437.853 283.217 439.477 282.405 439.748 281.05C439.748 280.238 439.477 278.883 439.207 277.529Z" fill="black"/>
<path d="M406.186 273.195C408.351 270.486 411.599 268.861 415.929 268.59C424.049 268.59 431.628 274.278 430.816 281.592C430.004 288.906 423.237 295.407 414.306 295.407C413.494 295.407 412.952 295.137 412.411 294.866C411.869 294.595 411.328 294.053 410.787 293.511C409.434 291.886 408.08 290.261 406.998 288.364C405.644 285.656 405.644 282.405 405.915 279.425C405.644 277.529 405.915 275.362 406.186 273.195Z" fill="#FFC2C2"/>
<path d="M367.48 336.853C367.48 334.957 367.21 332.79 366.668 330.894C366.398 329.539 365.586 328.185 364.774 327.101V326.83C370.187 330.894 377.495 331.435 383.991 330.623C387.51 330.081 390.758 329.268 394.006 328.185C395.359 327.643 402.126 323.851 402.396 327.101C402.396 328.185 401.314 328.997 400.231 329.268C398.336 329.81 396.442 329.81 394.818 330.894C394.006 331.435 393.194 332.248 392.382 332.519C391.57 333.061 390.758 333.061 389.675 333.332C388.051 333.602 386.698 333.873 385.074 334.144C383.991 334.415 382.908 334.415 382.096 335.228C381.014 336.04 380.472 337.124 379.39 337.666C378.578 338.207 377.495 338.478 376.683 339.02C375.871 339.291 367.48 341.458 367.48 341.458C367.48 340.104 367.48 338.478 367.48 336.853Z" fill="black"/>
<path d="M418.365 276.445C415.388 276.716 412.411 278.342 411.057 281.05C409.433 283.759 409.433 287.01 411.057 289.719" stroke="#1C1C1B" stroke-width="0.75" stroke-miterlimit="10" stroke-linecap="round" stroke-linejoin="round"/>
<path d="M628.401 552.749C539.353 518.346 475.746 484.485 509.038 437.893C514.993 429.767 525.278 425.432 535.293 425.162C545.307 424.62 555.322 427.6 564.795 431.121C596.192 443.04 624.342 463.627 645.724 489.903C655.197 501.551 694.444 559.25 652.761 557.354C644.1 556.812 636.251 555.999 628.401 552.749Z" fill="#FFC2C2"/>
<path d="M671.167 539.475L603.5 513.199C590.238 521.326 592.132 522.138 579.952 531.89C576.434 534.87 566.69 546.518 561.818 550.581C572.374 567.105 575.08 581.191 583.2 598.799C584.283 598.528 595.38 593.923 596.463 593.652C612.703 588.776 629.484 585.255 644.371 577.128C651.408 573.336 659.528 568.731 664.4 562.771C669.543 556.541 672.52 548.143 671.167 539.475Z" fill="#FFC2C2"/>
<path d="M559.382 546.789C559.382 547.06 559.382 547.331 559.111 547.602C558.57 548.956 557.216 549.769 555.863 550.852C552.615 553.561 549.097 555.999 545.849 558.708C539.894 563.313 534.21 567.918 528.255 572.523C527.443 573.336 526.361 573.878 525.549 574.419C524.195 574.961 522.571 574.961 520.947 574.961C518.511 574.961 516.075 574.961 513.639 574.961C495.776 575.232 477.912 575.232 460.048 573.878C457.07 573.607 448.68 575.232 451.928 580.379C453.281 582.275 454.364 583.088 456.8 583.088C458.153 583.088 459.236 583.088 460.589 583.358C463.296 583.629 466.002 583.629 468.438 583.9C473.581 584.171 478.453 584.713 483.596 585.255C485.22 585.526 487.114 585.526 488.738 585.796C488.468 587.151 488.197 588.776 487.926 590.672C487.926 590.672 487.926 590.672 487.926 590.943C485.49 590.672 482.784 590.402 480.348 590.131C475.205 589.589 470.333 589.047 465.461 588.505C463.025 588.234 460.589 587.693 458.153 587.422C455.446 587.151 453.01 586.338 450.304 587.151C446.785 588.234 446.244 593.381 449.221 595.277C451.657 596.903 454.905 596.903 457.612 597.174C460.048 597.445 462.754 597.715 465.19 597.986C470.333 598.528 475.205 598.799 480.348 598.799C483.054 598.799 485.761 599.07 488.197 599.07C488.468 600.424 488.468 601.779 488.738 603.133C489.009 604.217 489.009 605.029 489.28 606.113C487.656 606.113 486.032 605.842 484.408 605.842C480.077 605.571 476.017 605.3 471.686 604.488C467.356 603.946 463.296 602.862 458.965 602.32C456.529 602.05 454.093 602.862 453.281 605.571C452.74 608.009 454.093 610.447 456.529 611.26C461.13 612.614 466.002 612.885 470.604 613.427C474.934 613.969 479.265 614.239 483.596 614.51C486.032 614.51 488.468 614.51 490.633 614.51C490.904 615.865 491.445 617.219 491.986 618.844C483.596 618.844 475.205 618.303 466.814 616.948C464.108 616.407 461.672 617.761 461.401 620.741C461.13 623.179 463.025 625.888 465.732 625.617C476.017 626.971 486.302 627.513 496.588 626.7C501.73 626.158 506.873 625.617 512.015 624.262C516.617 623.179 520.947 622.366 525.549 621.012C538.541 616.677 551.533 612.614 564.795 608.28C571.02 606.384 578.058 602.862 584.283 602.05C588.343 601.508 592.944 603.133 592.132 596.903C591.591 592.298 588.884 588.234 586.719 584.171C579.411 570.898 574.268 555.999 563.712 545.164C562.63 544.08 561.276 543.267 560.194 544.08C559.111 544.351 559.382 545.705 559.382 546.789Z" fill="#FFBB00"/>
<path d="M441.372 368.817C497.941 382.362 527.173 389.134 573.457 422.724C562.089 447.103 550.721 494.237 539.353 518.346C499.294 504.26 527.173 517.804 487.114 503.718" fill="#0C2B5F"/>
<path d="M511.474 510.761C511.204 510.761 510.933 510.49 510.662 510.49C505.249 509.678 500.106 508.052 495.234 506.156C493.61 505.614 491.986 505.073 490.362 504.531C489.55 504.26 488.738 503.989 487.656 503.718C487.114 504.26 486.844 504.802 486.573 505.614C486.573 505.885 486.302 506.156 486.302 506.427C486.032 508.052 486.844 509.678 488.468 510.49C489.821 511.032 491.174 511.574 492.528 511.845C495.505 512.657 498.753 513.199 501.46 515.095C504.437 517.533 505.79 521.326 507.144 525.118C508.226 528.64 511.204 534.328 512.286 537.85C513.098 530.265 512.016 520.513 512.828 512.657C512.557 511.574 512.286 510.49 511.474 510.761Z" fill="black"/>
<path d="M371.811 348.23C372.352 352.835 372.082 357.711 370.999 362.316L371.811 348.23Z" fill="white"/>
<path d="M371.811 348.23C372.352 352.835 372.082 357.711 370.999 362.316" stroke="#1C1C1B" stroke-width="0.75" stroke-miterlimit="10" stroke-linecap="round" stroke-linejoin="round"/>
<path d="M291.153 530.265C291.153 541.913 291.153 553.561 291.153 564.938" stroke="#1C1C1B" stroke-width="0.75" stroke-miterlimit="10" stroke-linecap="round" stroke-linejoin="round"/>
<path d="M291.424 571.981C291.424 574.149 291.424 576.316 291.424 578.483" stroke="#1C1C1B" stroke-width="0.75" stroke-miterlimit="10" stroke-linecap="round" stroke-linejoin="round"/>
<path d="M291.424 594.736C290.882 601.508 290.341 609.905 289.8 616.678" stroke="#1C1C1B" stroke-width="0.75" stroke-miterlimit="10" stroke-linecap="round" stroke-linejoin="round"/>
<path d="M296.296 578.482C296.566 583.358 296.296 588.234 295.484 592.839" stroke="#1C1C1B" stroke-width="0.75" stroke-miterlimit="10" stroke-linecap="round" stroke-linejoin="round"/>
<path d="M502.272 587.422C500.918 586.338 499.024 586.338 497.4 587.422" stroke="#1C1C1B" stroke-width="0.75" stroke-miterlimit="10" stroke-linecap="round" stroke-linejoin="round"/>
<path d="M502.272 600.153C499.836 600.424 497.4 600.695 494.964 600.966" stroke="#1C1C1B" stroke-width="0.75" stroke-miterlimit="10" stroke-linecap="round" stroke-linejoin="round"/>
<path d="M501.46 612.072C500.377 611.531 499.294 611.531 498.212 612.072" stroke="#1C1C1B" stroke-width="0.75" stroke-miterlimit="10" stroke-linecap="round" stroke-linejoin="round"/>
<path d="M369.916 498.842C369.646 503.989 370.187 509.678 369.375 514.825C368.563 520.784 365.586 525.66 366.398 532.161C366.668 534.328 367.48 536.766 369.104 538.121C370.999 539.475 373.435 539.746 375.871 539.746C380.743 540.017 385.615 540.017 390.216 538.933C392.923 538.392 395.63 537.037 398.336 535.954C404.02 533.516 409.975 531.078 415.659 528.64C420.801 526.473 426.485 524.035 428.921 518.888C430.545 515.366 430.275 511.032 428.921 507.24C426.215 499.655 422.425 492.07 419.177 484.485C415.388 475.546 414.847 469.587 419.448 460.918C423.508 453.604 430.275 447.374 431.087 438.977C431.628 431.934 427.027 424.62 420.26 422.453C417.012 421.369 413.764 421.369 410.246 421.369C403.75 421.64 396.983 422.724 390.487 422.182C384.262 421.64 378.036 421.64 371.811 422.724C362.338 424.349 355.301 430.037 358.007 440.331C358.819 443.582 360.714 446.561 362.338 449.812C370.458 464.982 370.458 482.318 369.916 498.842Z" fill="#089654"/>
<path d="M230.795 535.683C240.268 531.349 259.214 527.827 259.214 527.827C261.921 527.014 264.898 526.202 267.605 525.66C281.68 521.597 295.754 517.263 309.558 512.387C317.678 509.407 325.798 506.156 333.918 502.635C340.414 499.655 350.699 496.134 353.676 489.091C354.759 486.382 355.301 483.402 356.654 480.693C357.466 478.797 357.736 476.901 358.278 475.004C358.819 472.837 359.36 470.399 360.172 468.232C361.255 465.253 362.608 462.273 365.315 460.106C365.586 460.106 365.586 459.835 365.856 459.835C366.939 459.835 367.48 463.627 367.751 464.44C368.022 465.794 368.292 467.42 369.375 468.503C370.999 470.399 373.435 472.025 375.6 473.379C378.036 475.004 381.014 476.63 383.991 476.63C385.615 476.63 387.51 476.088 389.134 475.817C397.524 473.379 403.208 471.212 409.975 465.253C415.929 459.835 421.343 453.875 426.485 447.645C427.297 446.562 428.38 445.207 429.463 444.394C430.275 443.582 431.628 443.04 432.711 443.04C434.605 443.04 436.229 444.394 436.5 446.02C437.041 447.916 435.959 450.083 434.605 451.708C429.463 458.21 423.779 464.711 420.26 472.567C422.696 471.483 424.861 472.837 425.673 475.275C426.485 477.442 425.403 479.61 424.32 481.777C423.779 482.86 423.237 483.944 422.967 484.756C424.591 484.215 426.756 484.756 427.297 486.653C427.839 488.007 427.297 489.632 426.756 490.987C426.215 492.07 425.673 493.154 425.132 494.508C425.944 494.779 426.756 495.05 427.027 495.592C427.568 496.134 427.839 496.946 427.839 497.759C428.651 504.802 418.636 510.22 413.764 513.199C405.915 518.075 397.795 522.68 389.134 525.389C383.179 527.285 376.683 528.64 370.728 531.078C362.067 534.599 354.489 540.288 347.181 545.976C339.602 552.207 331.211 557.354 323.362 562.771C306.31 574.69 289.8 586.609 271.936 597.445C252.448 609.364 229.171 619.928 206.976 613.969" fill="#FFC2C2"/>
<path d="M196.691 598.528C199.127 602.591 203.457 605.571 208.059 606.383" stroke="#1C1C1B" stroke-width="0.75" stroke-miterlimit="10" stroke-linecap="round" stroke-linejoin="round"/>
<path d="M569.126 432.476C571.291 427.6 571.832 422.995 571.832 422.995C571.832 422.995 559.923 417.035 555.322 414.868C545.849 410.534 536.105 406.741 526.09 403.22C506.332 396.719 485.761 392.384 464.92 390.488" stroke="black" stroke-width="0.75" stroke-miterlimit="10" stroke-linecap="round" stroke-linejoin="round"/>
<path d="M662.776 547.331C664.671 552.207 660.069 557.624 656.551 561.146L662.776 547.331Z" fill="white"/>
<path d="M662.776 547.331C664.671 552.207 660.069 557.624 656.551 561.146" stroke="#1C1C1B" stroke-width="0.75" stroke-miterlimit="10" stroke-linecap="round" stroke-linejoin="round"/>
<path d="M325.798 370.172C306.31 374.235 282.221 386.967 270.853 395.364C236.208 421.098 226.735 438.706 201.021 473.65C228.088 486.382 255.696 503.989 285.74 510.49C287.905 511.032 312.535 476.901 321.197 466.065" fill="#0C2B5F"/>
<path d="M579.411 378.027C558.841 376.944 546.39 378.027 526.09 381.278" stroke="black" stroke-width="0.75" stroke-miterlimit="10" stroke-linecap="round" stroke-linejoin="round"/>
<path d="M214.013 454.688C222.675 443.582 231.336 433.288 242.975 424.349C252.177 417.306 263.004 411.888 273.83 406.741" stroke="black" stroke-width="0.75" stroke-miterlimit="10" stroke-linecap="round" stroke-linejoin="round"/>
<path d="M280.597 509.136C283.304 509.948 286.281 511.032 288.988 511.844C294.401 503.176 294.13 502.905 300.085 494.508" stroke="black" stroke-width="0.75" stroke-miterlimit="10" stroke-linecap="round" stroke-linejoin="round"/>
<path d="M488.468 504.26C485.49 502.364 476.558 496.946 476.558 496.946" stroke="black" stroke-width="0.75" stroke-miterlimit="10" stroke-linecap="round" stroke-linejoin="round"/>
<path d="M232.419 404.574C265.169 384.8 298.732 373.152 336.354 367.734" stroke="#0C2B5F" stroke-width="0.75" stroke-miterlimit="10" stroke-linecap="round" stroke-linejoin="round"/>
<path d="M178.015 285.926C177.474 296.491 178.286 306.243 182.346 316.265" stroke="#1C1C1B" stroke-width="0.75" stroke-miterlimit="10" stroke-linecap="round" stroke-linejoin="round"/>
<path d="M186.135 323.85C188.03 327.913 193.714 335.227 195.608 339.291L186.135 323.85Z" fill="white"/>
<path d="M186.135 323.85C188.03 327.913 193.714 335.227 195.608 339.291" stroke="#1C1C1B" stroke-width="0.75" stroke-miterlimit="10" stroke-linecap="round" stroke-linejoin="round"/>
<path d="M232.96 259.921C232.419 263.172 231.607 266.694 231.065 269.944L232.96 259.921Z" fill="white"/>
<path d="M232.96 259.921C232.419 263.172 231.607 266.694 231.065 269.944" stroke="#1C1C1B" stroke-width="0.75" stroke-miterlimit="10" stroke-linecap="round" stroke-linejoin="round"/>
<path d="M354.218 301.096C355.571 305.701 359.902 309.222 364.774 309.493C369.646 309.764 374.518 307.055 376.412 302.721C377.495 300.554 377.766 298.116 378.036 295.407L354.218 301.096Z" fill="white"/>
<path d="M138.768 516.179C140.663 519.429 143.099 522.68 145.535 525.66L138.768 516.179Z" fill="white"/>
<path d="M138.768 516.179C140.663 519.429 143.099 522.68 145.535 525.66" stroke="#1C1C1B" stroke-width="0.75" stroke-miterlimit="10" stroke-linecap="round" stroke-linejoin="round"/>
<path d="M177.474 459.293C178.286 461.731 178.827 463.898 179.639 466.336L177.474 459.293Z" fill="white"/>
<path d="M177.474 459.293C178.286 461.731 178.827 463.898 179.639 466.336" stroke="#1C1C1B" stroke-width="0.75" stroke-miterlimit="10" stroke-linecap="round" stroke-linejoin="round"/>
<path d="M59.1929 318.162C60.2756 321.141 61.6289 324.392 62.7116 327.643C63.2529 329.268 63.7942 330.893 64.3356 332.248C65.1476 334.415 65.6889 336.853 64.0649 338.749C63.2529 339.832 61.6289 340.374 60.5463 340.103C59.1929 339.562 58.381 338.478 57.8396 337.394C56.757 335.227 55.6743 333.06 54.8623 330.893" stroke="#1C1C1B" stroke-width="0.75" stroke-miterlimit="10" stroke-linecap="round" stroke-linejoin="round"/>
<path d="M64.0649 331.977C64.8769 334.956 67.0423 338.478 70.2902 338.749C71.1022 338.749 71.9142 338.749 72.4556 338.207C72.9969 337.936 73.2676 337.665 73.5382 337.123C75.1622 334.685 75.1622 331.977 74.6209 329.268C74.0795 326.559 72.7262 324.121 72.1849 321.683C71.3729 318.703 71.1022 315.724 70.0196 313.015" stroke="#1C1C1B" stroke-width="0.75" stroke-miterlimit="10" stroke-linecap="round" stroke-linejoin="round"/>
<path d="M74.6208 329.81C75.1622 332.79 77.3275 336.311 80.3048 337.124C84.9061 338.207 85.7181 332.79 85.4474 329.539C84.9061 321.683 81.6581 314.369 80.5755 306.514" stroke="#1C1C1B" stroke-width="0.75" stroke-miterlimit="10" stroke-linecap="round" stroke-linejoin="round"/>
<path d="M99.7928 327.101C90.8608 334.144 84.3649 344.709 82.4702 356.086" stroke="#1C1C1B" stroke-width="0.75" stroke-miterlimit="10" stroke-linecap="round" stroke-linejoin="round"/>
<path d="M518.241 585.255C519.323 585.526 520.135 585.526 521.218 585.255C523.925 584.713 525.549 581.733 525.278 579.025C524.737 575.232 519.323 567.376 514.993 571.711C511.745 574.961 513.098 583.9 518.241 585.255Z" fill="#FFBB00"/>
<path d="M352.594 268.319C349.075 268.319 349.075 273.737 352.594 273.737C356.112 273.737 356.112 268.319 352.594 268.319Z" fill="#1C1C1B"/>
<path d="M383.45 267.506C379.931 267.506 379.931 272.924 383.45 272.924C386.968 272.924 386.968 267.506 383.45 267.506Z" fill="#1C1C1B"/>
<path d="M370.458 268.59C368.834 270.486 368.834 273.195 367.751 275.362C366.668 277.258 365.044 278.342 363.42 279.696C361.797 281.051 360.173 282.676 359.902 284.572C359.361 287.01 361.255 289.719 363.691 290.261" stroke="#1C1C1B" stroke-width="0.75" stroke-miterlimit="10" stroke-linecap="round" stroke-linejoin="round"/>
<path d="M379.66 441.415C379.66 443.311 378.307 444.665 376.412 444.665C374.518 444.665 373.164 443.311 373.164 441.415C373.164 439.518 374.518 438.164 376.412 438.164C378.307 438.164 379.66 439.518 379.66 441.415Z" stroke="black" stroke-width="0.75" stroke-miterlimit="10" stroke-linecap="round" stroke-linejoin="round"/>
<path d="M380.743 451.166C380.743 451.979 380.202 452.521 379.39 452.521C378.578 452.521 378.036 451.979 378.036 451.166C378.036 450.354 378.578 449.812 379.39 449.812C380.202 449.812 380.743 450.625 380.743 451.166Z" stroke="black" stroke-width="0.75" stroke-miterlimit="10" stroke-linecap="round" stroke-linejoin="round"/>
<path d="M389.675 447.103C390.871 447.103 391.84 446.133 391.84 444.936C391.84 443.739 390.871 442.769 389.675 442.769C388.479 442.769 387.51 443.739 387.51 444.936C387.51 446.133 388.479 447.103 389.675 447.103Z" stroke="black" stroke-width="0.75" stroke-miterlimit="10" stroke-linecap="round" stroke-linejoin="round"/>
<path d="M411.057 438.976C411.057 441.143 409.163 443.04 406.997 443.04C404.832 443.04 402.938 441.143 402.938 438.976C402.938 436.809 404.832 434.913 406.997 434.913C409.433 434.913 411.057 436.809 411.057 438.976Z" stroke="black" stroke-width="0.75" stroke-miterlimit="10" stroke-linecap="round" stroke-linejoin="round"/>
<path d="M399.689 455.772C399.689 456.313 399.148 456.855 398.607 456.855C398.066 456.855 397.524 456.313 397.524 455.772C397.524 455.23 398.066 454.688 398.607 454.688C399.419 454.688 399.689 455.23 399.689 455.772Z" stroke="black" stroke-width="0.75" stroke-miterlimit="10" stroke-linecap="round" stroke-linejoin="round"/>
<path d="M421.072 471.212C419.177 473.108 417.283 474.733 415.117 476.088" stroke="#1C1C1B" stroke-width="0.75" stroke-miterlimit="10" stroke-linecap="round" stroke-linejoin="round"/>
<path d="M424.32 483.402C422.425 484.756 420.801 486.111 419.177 487.465" stroke="#1C1C1B" stroke-width="0.75" stroke-miterlimit="10" stroke-linecap="round" stroke-linejoin="round"/>
<path d="M424.861 494.237C422.967 495.592 420.801 496.675 418.636 497.759" stroke="#1C1C1B" stroke-width="0.75" stroke-miterlimit="10" stroke-linecap="round" stroke-linejoin="round"/>
<path d="M183.157 542.997C188.029 519.971 192.901 496.404 205.352 476.359" stroke="#1C1C1B" stroke-width="0.75" stroke-miterlimit="10" stroke-linecap="round" stroke-linejoin="round"/>
<path d="M408.351 408.637C408.08 408.908 407.809 408.908 407.539 409.179C406.185 409.721 404.832 409.992 403.479 410.263C398.877 411.075 394.276 412.701 389.946 414.597C385.344 416.493 381.826 417.576 376.954 417.847C373.435 417.847 371.27 421.64 368.022 422.723C365.044 423.807 360.984 422.723 359.09 420.014C357.466 417.847 356.924 414.868 356.654 412.159C355.571 404.303 354.488 396.176 354.759 388.05C354.759 386.696 354.759 385.07 355.842 383.987C356.383 383.445 357.195 382.903 358.278 382.632C362.067 381.278 366.398 381.007 370.458 382.09C378.578 383.987 384.532 390.759 390.487 396.718C392.382 398.614 394.547 400.511 397.254 401.323C400.231 402.136 411.599 400.24 410.787 405.657C409.975 407.012 409.163 407.825 408.351 408.637Z" fill="#1C1C1B"/>
<path d="M271.124 523.222C258.673 526.472 246.493 530.265 234.313 535.141" stroke="#1C1C1B" stroke-width="0.75" stroke-miterlimit="10" stroke-linecap="round" stroke-linejoin="round"/>
<path d="M429.463 360.149C429.733 360.42 392.382 402.949 392.382 402.949L423.779 420.827L443.537 365.296L429.463 360.149Z" fill="#0C2B5F"/>
<path d="M364.774 361.232C363.691 361.774 351.24 364.754 351.24 364.754L364.503 420.827L391.57 403.491L364.774 361.232Z" fill="#0C2B5F"/>
<path d="M351.511 368.817C353.406 374.235 355.03 379.382 356.383 384.8C357.195 388.321 358.007 391.572 358.819 395.093C360.714 403.491 362.879 412.159 364.774 420.556C373.976 415.139 383.72 409.992 391.84 403.22C399.69 408.638 416.471 414.868 424.049 420.556C431.899 403.22 434.876 386.154 442.455 368.817" stroke="#1C1C1B" stroke-width="0.75" stroke-miterlimit="10" stroke-linecap="round" stroke-linejoin="round"/>
<path d="M606.207 134.502C609.726 132.876 613.786 130.438 616.492 127.459C619.74 123.666 618.387 116.894 612.432 117.707C614.868 115.269 615.951 111.476 614.868 108.226C613.786 104.975 609.996 102.537 606.748 103.621C608.372 102.266 608.643 99.8283 607.831 97.9321C606.748 96.0359 604.854 94.9524 602.688 94.6815C600.523 94.4106 598.358 95.2233 596.463 96.0359C597.816 95.4942 597.546 90.8891 597.275 89.5347C596.734 87.0967 594.839 84.9296 592.403 84.6588C587.802 83.8461 581.847 86.2841 578.329 88.9929C575.081 91.4309 572.374 94.4106 570.479 97.9321C569.667 99.2866 568.855 100.912 568.585 102.537C568.314 104.163 568.855 106.059 569.938 107.142C571.291 108.226 573.186 108.497 575.081 108.497C577.787 108.226 580.765 107.684 583.2 106.6C580.494 108.226 579.682 111.476 579.411 114.727C579.141 116.081 579.141 117.707 579.953 118.519C580.765 119.332 581.847 119.603 583.2 119.874C585.907 120.145 588.614 119.874 591.32 119.061C588.884 120.145 588.072 123.395 589.155 125.833C590.508 128 593.486 129.084 595.922 127.73C594.568 128.271 592.674 130.438 592.403 131.522C591.591 133.689 592.403 136.669 594.568 137.481C595.651 137.752 596.734 137.752 597.816 137.481C600.794 136.669 603.5 135.585 606.207 134.502Z" fill="#FFC2C2"/>
<path d="M569.126 101.454C567.773 103.892 569.667 107.142 572.103 108.226C574.81 109.309 577.516 108.497 579.952 107.142C576.975 108.497 576.163 113.102 578.328 115.811C580.494 118.519 584.554 119.061 587.531 117.707C585.636 119.874 586.178 123.395 588.072 125.292C590.238 127.188 593.215 127.459 595.922 126.646C595.11 128.542 594.568 130.98 595.11 132.876C595.651 135.043 597.546 136.669 599.711 136.669" stroke="#212020" stroke-width="0.75" stroke-miterlimit="10" stroke-linecap="round" stroke-linejoin="round"/>
<path d="M596.463 95.2231C592.944 97.932 589.155 100.37 585.636 103.079" stroke="#212020" stroke-width="0.75" stroke-miterlimit="10" stroke-linecap="round" stroke-linejoin="round"/>
<path d="M607.29 103.079C601.606 106.6 595.922 110.393 590.508 114.456" stroke="#212020" stroke-width="0.75" stroke-miterlimit="10" stroke-linecap="round" stroke-linejoin="round"/>
<path d="M613.244 116.894C609.184 120.686 604.042 122.854 599.44 125.833" stroke="#212020" stroke-width="0.75" stroke-miterlimit="10" stroke-linecap="round" stroke-linejoin="round"/>
<path d="M93.8381 607.196C95.7328 610.447 96.8155 613.969 97.8981 617.49C98.4394 618.845 98.7101 619.928 98.9808 621.282C99.2514 622.637 100.063 625.075 99.7928 626.429C100.063 624.262 100.605 621.824 100.875 619.657C101.687 615.865 102.499 612.072 103.853 608.551C105.477 604.758 107.642 601.508 110.619 598.528C113.326 595.819 116.845 594.465 119.822 592.027C114.95 590.943 110.619 588.505 107.371 584.984C104.123 581.191 101.958 576.857 100.875 571.981C99.7928 567.918 99.5221 563.584 97.8981 559.792C97.0861 567.376 97.3568 575.232 92.7555 581.733C90.8608 584.442 88.6955 586.88 85.9888 588.776C84.6355 589.86 79.4929 593.381 77.8689 592.569C84.9062 595.277 90.3195 600.966 93.8381 607.196Z" fill="#BBD3F5"/>
<path d="M74.3502 535.954C72.4556 532.161 71.9142 527.827 70.0196 524.035C70.0196 528.369 70.0196 533.516 67.3129 537.037C65.9596 538.662 64.3356 540.017 62.7116 541.1C61.3583 541.913 58.6517 543.538 57.2983 543.268C61.629 543.809 65.9596 545.976 68.6663 549.498C70.5609 551.936 71.1023 555.186 71.9142 558.166C72.7262 561.146 73.2676 564.126 73.5382 567.105C74.0796 563.313 74.3502 559.792 74.8916 555.999C75.1622 553.019 75.7036 548.956 77.8689 546.789C78.9515 545.705 80.5755 545.164 81.6582 544.622C82.7409 544.08 85.4475 542.726 86.5302 542.997C82.1995 541.913 77.8689 540.288 75.4329 536.766C74.8916 536.766 74.6209 536.495 74.3502 535.954Z" fill="#BBD3F5"/>
<path d="M80.0806 142.428L88.1997 142.541L88.3946 128.456L80.2754 128.343L80.0806 142.428Z" fill="#212020"/>
<path d="M92.7554 127.458C93.5674 127.188 94.3794 126.917 95.1914 126.646C96.2741 126.375 97.3567 125.833 98.1687 125.021C100.605 121.77 96.5447 120.415 94.3794 119.874C88.9661 118.79 83.5528 119.332 78.1395 119.332C71.6435 119.332 65.6889 119.061 59.4636 119.061C56.4863 119.061 53.509 119.332 50.8023 119.603C50.5317 119.603 50.261 119.603 49.9903 119.874C49.7197 120.145 49.449 120.686 49.449 120.957C49.449 121.77 49.1783 122.312 49.1783 123.124C49.1783 123.395 49.1783 123.666 49.1783 123.937C49.449 124.208 49.7197 124.208 49.9903 124.479C59.7343 127.458 70.0195 126.646 79.4928 130.709C80.3048 130.98 82.1995 132.605 83.0115 132.876C84.0941 132.876 84.6355 132.064 85.4475 131.251C87.6128 128.813 89.7781 128.271 92.7554 127.458Z" fill="#212020"/>
<path d="M93.5675 168.633L73.2676 168.362C70.0196 168.362 67.313 165.653 67.313 162.132L67.5837 145.337C67.5837 142.086 70.2903 139.377 73.8089 139.377L94.1088 139.648C97.3568 139.648 100.063 142.357 100.063 145.879L99.7928 162.674C99.7928 166.195 97.0861 168.904 93.5675 168.633Z" fill="#FFD700"/>
<path d="M74.3503 141.273L74.0796 169.987" stroke="#212020" stroke-width="0.75" stroke-miterlimit="10" stroke-linecap="round" stroke-linejoin="round"/>
<path d="M83.5529 138.835L83.2822 169.716" stroke="#212020" stroke-width="0.75" stroke-miterlimit="10" stroke-linecap="round" stroke-linejoin="round"/>
<path d="M93.0262 141.544L92.7555 169.446" stroke="#212020" stroke-width="0.75" stroke-miterlimit="10" stroke-linecap="round" stroke-linejoin="round"/>
<path d="M52.1557 272.111L111.973 272.924C114.409 272.924 116.574 271.028 116.574 268.319L117.927 163.486C117.927 161.319 116.574 159.423 114.679 158.881C93.8381 153.192 72.9969 152.651 52.4264 158.068C50.5317 158.61 48.9077 160.506 48.9077 162.403L47.5544 267.235C47.2837 269.944 49.449 272.111 52.1557 272.111Z" fill="#089654"/>
<path d="M57.8396 226.331L58.3809 179.197C58.3809 177.03 60.0049 175.134 61.8996 174.592C75.7035 171.342 89.7781 171.071 104.123 175.134C106.289 175.676 107.642 177.572 107.642 179.739L107.101 226.331H57.8396Z" fill="#FF792B"/>
<path d="M107.101 233.917L106.83 256.671L57.569 256.129L57.8396 233.917H107.101Z" fill="#00C8FF"/>
<path d="M139.31 393.197C124.694 404.032 108.454 412.43 91.1315 418.118" stroke="#1C1C1B" stroke-width="0.75" stroke-miterlimit="10" stroke-linecap="round" stroke-linejoin="round"/>
<path d="M629.484 471.483C614.598 457.668 597.546 446.02 578.87 437.622" stroke="#1C1C1B" stroke-width="0.75" stroke-miterlimit="10" stroke-linecap="round" stroke-linejoin="round"/>
<path d="M578.328 532.703C585.636 529.452 593.486 527.014 601.335 525.389" stroke="#1C1C1B" stroke-width="0.75" stroke-miterlimit="10" stroke-linecap="round" stroke-linejoin="round"/>
<path d="M437.853 254.504C437.312 254.233 437.041 253.962 436.5 253.42C422.425 243.939 406.456 241.23 389.404 239.063C379.931 237.709 370.187 236.625 360.714 235.271C358.819 235 356.925 234.729 355.03 235C353.135 235.271 351.511 235.813 349.887 236.625C343.662 239.334 337.437 241.772 331.211 244.481C324.986 247.19 316.325 255.045 325.257 260.734C327.963 262.63 331.482 262.901 334.459 263.172C347.993 264.256 361.526 263.985 375.059 262.088C381.826 261.005 388.592 259.65 395.088 257.754C398.607 256.942 401.855 255.858 405.103 254.504C407.268 253.691 410.246 251.795 412.682 252.878C421.613 256.942 430.004 262.63 437.312 268.861C437.583 264.256 437.853 259.38 437.853 254.504Z" fill="#FF792B"/>
<path d="M42.6824 119.061C34.8331 120.957 26.4425 120.144 19.1346 116.894C17.2399 116.081 15.3453 114.727 13.9919 113.101C12.9093 111.205 12.3679 108.767 13.7213 106.871" stroke="#6CCAE4" stroke-width="0.75" stroke-miterlimit="10" stroke-linecap="round" stroke-linejoin="round"/>
<path d="M1 124.75C6.95463 124.479 12.6386 124.208 18.5932 123.937" stroke="#6CCAE4" stroke-width="0.75" stroke-miterlimit="10" stroke-linecap="round" stroke-linejoin="round"/>
<path d="M9.66125 136.127C15.6159 133.689 21.8412 131.522 27.7958 129.896" stroke="#6CCAE4" stroke-width="0.75" stroke-miterlimit="10" stroke-linecap="round" stroke-linejoin="round"/>
<path d="M559.382 548.414C563.712 554.915 567.772 561.417 571.562 568.189" stroke="#1C1C1B" stroke-width="0.75" stroke-miterlimit="10" stroke-linecap="round" stroke-linejoin="round"/>
<path d="M584.824 601.237C583.742 597.986 582.659 594.735 581.576 591.485" stroke="#1C1C1B" stroke-width="0.75" stroke-miterlimit="10" stroke-linecap="round" stroke-linejoin="round"/>
<path d="M513.098 572.794C512.016 573.336 511.204 573.878 510.121 574.419" stroke="#1C1C1B" stroke-width="0.75" stroke-miterlimit="10" stroke-linecap="round" stroke-linejoin="round"/>
<path d="M293.589 205.473C284.386 218.476 274.913 231.207 265.169 243.668" stroke="#6CCAE4" stroke-width="0.75" stroke-miterlimit="10" stroke-linecap="round" stroke-linejoin="round"/>
<path d="M278.973 237.979C274.372 243.939 269.77 249.898 265.169 256.129" stroke="#6CCAE4" stroke-width="0.75" stroke-miterlimit="10" stroke-linecap="round" stroke-linejoin="round"/>
<path d="M665.483 248.273L656.28 234.187L671.437 229.311L663.317 213.329L679.557 208.995L670.625 193.554L687.136 187.866L678.475 172.425" stroke="#6CCAE4" stroke-width="0.75" stroke-miterlimit="10" stroke-linecap="round" stroke-linejoin="round"/>
<path d="M694.714 594.735C690.654 591.485 683.076 593.652 681.993 599.34C681.722 600.424 681.993 601.237 681.993 602.32C682.534 605.571 683.617 609.092 680.91 611.801C679.016 613.697 675.768 613.697 673.061 613.697C670.084 613.426 664.941 613.155 663.588 616.677C662.776 619.115 663.858 621.824 664.67 624.262C665.482 626.7 666.024 629.679 664.129 631.576C661.693 634.014 657.633 632.388 654.115 632.659C650.596 632.93 647.619 635.368 646.536 638.348C645.453 641.598 646.536 645.391 648.972 647.829" stroke="#6CCAE4" stroke-width="0.75" stroke-miterlimit="10" stroke-linecap="round" stroke-linejoin="round"/>
<path d="M487.385 242.856C487.385 237.167 491.986 232.562 497.67 232.562C503.354 232.562 507.956 237.167 507.956 242.856" stroke="#6CCAE4" stroke-width="0.75" stroke-miterlimit="10" stroke-linecap="round" stroke-linejoin="round"/>
<path d="M233.501 654.872C228.629 660.561 220.239 661.103 214.555 656.227C208.871 651.351 208.329 642.953 213.201 637.265" stroke="#6CCAE4" stroke-width="0.75" stroke-miterlimit="10" stroke-linecap="round" stroke-linejoin="round"/>
<path d="M100.334 672.479H727.465" stroke="black" stroke-width="0.75" stroke-miterlimit="10" stroke-linecap="round" stroke-linejoin="round"/>
<path d="M405.103 479.609C403.75 480.151 402.667 480.964 401.314 481.506" stroke="#1C1C1B" stroke-width="0.75" stroke-miterlimit="10" stroke-linecap="round" stroke-linejoin="round"/>
<path d="M409.433 487.736C408.622 488.819 406.997 489.632 405.644 489.632" stroke="#1C1C1B" stroke-width="0.75" stroke-miterlimit="10" stroke-linecap="round" stroke-linejoin="round"/>
<path d="M414.576 496.946C413.493 496.675 412.14 496.946 411.328 497.217" stroke="#1C1C1B" stroke-width="0.75" stroke-miterlimit="10" stroke-linecap="round" stroke-linejoin="round"/>
<path d="M416.2 505.073C414.847 505.615 413.764 506.427 412.411 506.969" stroke="#1C1C1B" stroke-width="0.75" stroke-miterlimit="10" stroke-linecap="round" stroke-linejoin="round"/>
</svg>
