<svg width="16" height="16" viewBox="0 0 16 16" fill="none" xmlns="http://www.w3.org/2000/svg">
<path d="M13.0472 14.9558C12.5141 15.3356 9.09316 12.9284 8.43798 12.9231C7.7828 12.9178 4.3234 15.2697 3.79647 14.8814C3.26955 14.4931 4.50832 10.505 4.31091 9.88208C4.11349 9.25914 0.801324 6.70512 1.0088 6.08541C1.21632 5.46571 5.40282 5.40815 5.93596 5.0284C6.46911 4.6487 7.88151 0.718393 8.53674 0.723638C9.19187 0.728929 10.5405 4.68145 11.0674 5.06972C11.5943 5.45796 15.7794 5.58293 15.9769 6.20587C16.1743 6.82881 12.8212 9.3292 12.6137 9.9489C12.4062 10.5686 13.5803 14.5761 13.0472 14.9558Z" fill="#F8B84E"/>
</svg>
