<svg width="2077" height="488" viewBox="0 0 2077 488" fill="none" xmlns="http://www.w3.org/2000/svg">
<mask id="mask0_55_5021" style="mask-type:alpha" maskUnits="userSpaceOnUse" x="-418" y="46" width="2779" height="1525">
<path d="M-417.779 70.3895C-269.519 300.568 5.22214 422.091 213.119 349.473C321.815 311.501 407.805 229.031 500.033 159.707C592.261 90.3832 699.729 31.7841 820.776 49.5132C918.431 63.8062 1012.23 125.768 1105.9 176.127C1199.58 226.486 1304.86 266.908 1391.93 234.786C1478.99 202.665 1543.73 99.3034 1642.03 122.851C1713.98 139.94 1771.02 220.718 1841.42 252.58C1909.28 283.174 1978.15 264.443 2040.31 242.624C2102.48 220.804 2167.84 196.176 2237 216.404C2306.16 236.631 2375.43 1315.33 2357.59 1386.93L39.1737 1570.1L-417.779 70.3895Z" fill="white"/>
</mask>
<g mask="url(#mask0_55_5021)">
<rect width="2074.84" height="681.887" transform="matrix(1 8.74228e-08 8.74228e-08 -1 2.16162 487.854)" fill="white"/>
</g>
</svg>
