<svg width="1920" height="488" viewBox="0 0 1920 488" fill="none" xmlns="http://www.w3.org/2000/svg">
<mask id="mask0_12_29978" style="mask-type:alpha" maskUnits="userSpaceOnUse" x="-562" y="46" width="2779" height="1525">
<path d="M-561.779 70.3895C-413.519 300.568 -138.778 422.091 69.1189 349.473C177.815 311.501 263.805 229.031 356.033 159.707C448.261 90.3832 555.729 31.7841 676.776 49.5132C774.431 63.8062 868.23 125.768 961.903 176.127C1055.58 226.486 1160.86 266.908 1247.93 234.786C1334.99 202.665 1399.73 99.3034 1498.03 122.851C1569.98 139.94 1627.02 220.718 1697.42 252.58C1765.28 283.174 1834.15 264.443 1896.31 242.624C1958.48 220.804 2023.84 196.176 2093 216.404C2162.16 236.631 2231.43 1315.33 2213.59 1386.93L-104.827 1570.1L-561.779 70.3895Z" fill="white"/>
</mask>
<g mask="url(#mask0_12_29978)">
<rect width="2074.84" height="681.887" transform="matrix(1 8.74228e-08 8.74228e-08 -1 -141.839 487.854)" fill="white"/>
</g>
</svg>
